<svg width="32" height="31" viewBox="0 0 32 31" fill="none" xmlns="http://www.w3.org/2000/svg">
<path d="M14.1652 5.9518C17.4818 5.57161 20.8365 6.246 23.7172 7.87199C26.5979 9.49798 28.8462 11.9862 30.1187 14.9567C30.2374 15.2642 30.2374 15.6024 30.1187 15.9099C29.5955 17.1302 28.904 18.2772 28.0628 19.3201M18.9363 18.3902C18.1307 19.1386 17.0518 19.5528 15.9318 19.5434C14.8119 19.534 13.7406 19.1019 12.9487 18.3401C12.1567 17.5784 11.7075 16.5478 11.6978 15.4706C11.688 14.3933 12.1186 13.3554 12.8966 12.5805M23.7701 22.9659C21.8814 24.0421 19.7742 24.7149 17.5914 24.9386C15.4085 25.1624 13.2012 24.9319 11.1192 24.2627C9.03719 23.5936 7.12915 22.5015 5.52457 21.0605C3.91999 19.6195 2.65642 17.8634 1.81959 15.9113C1.70093 15.6038 1.70093 15.2655 1.81959 14.9581C3.08196 12.0133 5.30312 9.54176 8.14973 7.91438M1.73131 1.73901L30.207 29.1303" stroke="#C31D2E" stroke-width="2" stroke-linecap="round" stroke-linejoin="round"/>
</svg>
