<svg width="18" height="18" viewBox="0 0 18 18" fill="none" xmlns="http://www.w3.org/2000/svg">
<path d="M8.875 1C7.83071 2.04429 7.24404 3.46065 7.24404 4.9375C7.24404 6.41435 7.83071 7.83071 8.875 8.875C9.91929 9.91929 11.3357 10.506 12.8125 10.506C14.2894 10.506 15.7057 9.91929 16.75 8.875C16.75 10.4325 16.2881 11.9551 15.4228 13.2501C14.5575 14.5452 13.3276 15.5545 11.8886 16.1506C10.4497 16.7466 8.86627 16.9025 7.33867 16.5987C5.81107 16.2948 4.40788 15.5448 3.30654 14.4435C2.2052 13.3421 1.45518 11.9389 1.15132 10.4113C0.847461 8.88374 1.00341 7.30034 1.59945 5.86137C2.19549 4.4224 3.20485 3.19249 4.49989 2.32718C5.79493 1.46186 7.31748 1 8.875 1Z" stroke="black" stroke-width="2" stroke-linecap="round" stroke-linejoin="round"/>
</svg>
