<svg width="34" height="34" viewBox="0 0 34 34" fill="none" xmlns="http://www.w3.org/2000/svg">
<circle cx="16.7999" cy="16.7999" r="16.7999" fill="white"/>
<path d="M9 9.21763C9 8.54506 9.55887 8 10.2484 8H24.7516C25.4411 8 26 8.54506 26 9.21763V23.7824C26 24.4549 25.4411 25 24.7516 25H10.2484C9.55887 25 9 24.4549 9 23.7824V9.21763ZM14.2519 22.2311V14.5546H11.7009V22.2311H14.2519ZM12.9769 13.5059C13.8663 13.5059 14.4198 12.9173 14.4198 12.1799C14.4039 11.4266 13.8673 10.8539 12.9939 10.8539C12.1206 10.8539 11.55 11.4276 11.55 12.1799C11.55 12.9173 12.1036 13.5059 12.9599 13.5059H12.9769ZM18.1917 22.2311V17.9439C18.1917 17.7144 18.2087 17.4849 18.2767 17.3213C18.4605 16.8634 18.8802 16.3884 19.5857 16.3884C20.509 16.3884 20.8777 17.0918 20.8777 18.1246V22.2311H23.4288V17.8281C23.4288 15.4694 22.1707 14.3729 20.492 14.3729C19.1384 14.3729 18.5317 15.1166 18.1917 15.6404V15.667H18.1747L18.1917 15.6404V14.5546H15.6417C15.6736 15.2749 15.6417 22.2311 15.6417 22.2311H18.1917Z" fill="#1A202C"/>
</svg>
