<svg width="31" height="32" viewBox="0 0 31 32" fill="none" xmlns="http://www.w3.org/2000/svg">
<path d="M17.9042 1.83339C20.7917 2.13765 23.4889 3.41835 25.5497 5.46371C27.6105 7.50907 28.9115 10.1966 29.2375 13.0817M17.9042 7.50006C19.2975 7.7748 20.576 8.46201 21.5739 9.47249C22.5717 10.483 23.2428 11.7701 23.5 13.1667M29.1667 22.9701V27.2201C29.1683 27.6146 29.0874 28.0051 28.9294 28.3666C28.7713 28.7281 28.5395 29.0526 28.2488 29.3194C27.958 29.5861 27.6148 29.7892 27.241 29.9156C26.8673 30.042 26.4713 30.0889 26.0783 30.0534C21.719 29.5797 17.5316 28.0901 13.8525 25.7042C10.4296 23.5292 7.52755 20.6271 5.35249 17.2042C2.95829 13.5084 1.46833 9.30063 1.00332 4.92172C0.967918 4.52997 1.01448 4.13513 1.14003 3.76236C1.26558 3.38958 1.46738 3.04703 1.73257 2.75652C1.99776 2.46601 2.32054 2.23389 2.68036 2.07496C3.04017 1.91603 3.42914 1.83376 3.82249 1.83339H8.07249C8.76 1.82662 9.42652 2.07008 9.94782 2.51839C10.4691 2.9667 10.8096 3.58927 10.9058 4.27006C11.0852 5.63015 11.4179 6.96559 11.8975 8.25089C12.0881 8.75795 12.1293 9.30902 12.0164 9.8388C11.9034 10.3686 11.6409 10.8549 11.26 11.2401L9.46082 13.0392C11.4775 16.5859 14.4141 19.5225 17.9608 21.5392L19.76 19.7401C20.1452 19.3592 20.6315 19.0967 21.1612 18.9837C21.691 18.8707 22.2421 18.912 22.7492 19.1026C24.0345 19.5822 25.3699 19.9148 26.73 20.0942C27.4182 20.1913 28.0466 20.5379 28.4959 21.0682C28.9452 21.5984 29.1839 22.2753 29.1667 22.9701Z" stroke="#C31D2E" stroke-width="2" stroke-linecap="round" stroke-linejoin="round"/>
</svg>
