<svg width="33" height="39" viewBox="0 0 33 39" fill="none" xmlns="http://www.w3.org/2000/svg">
<path d="M10.6702 19.5L14.3953 23.0833L21.8457 15.9167M31.1587 21.2917C31.1587 30.25 24.6396 34.7292 16.8912 37.3271C16.4855 37.4593 16.0447 37.453 15.6433 37.3092C7.87626 34.7292 1.35718 30.25 1.35718 21.2917V8.74999C1.35718 8.27481 1.55342 7.8191 1.90272 7.48309C2.25202 7.14709 2.72578 6.95833 3.21977 6.95833C6.94496 6.95833 11.6015 4.80832 14.8424 2.08499C15.237 1.7607 15.7389 1.58252 16.2579 1.58252C16.7769 1.58252 17.2789 1.7607 17.6735 2.08499C20.9331 4.82624 25.5709 6.95833 29.2961 6.95833C29.7901 6.95833 30.2639 7.14709 30.6132 7.48309C30.9625 7.8191 31.1587 8.27481 31.1587 8.74999V21.2917Z" stroke="#C31D2E" stroke-width="2" stroke-linecap="round" stroke-linejoin="round"/>
</svg>
