<svg width="39" height="35" viewBox="0 0 39 35" fill="none" xmlns="http://www.w3.org/2000/svg">
<path d="M1.58337 33.625C1.58322 30.8664 2.37911 28.1664 3.87553 25.849C5.37195 23.5315 7.50532 21.6951 10.0196 20.5602C12.5339 19.4252 15.3223 19.0399 18.0502 19.4505C20.778 19.8611 23.3294 21.0502 25.3982 22.875M26.6667 30.0417L30.25 33.625L37.4167 26.4583M24.875 10.3333C24.875 15.2809 20.8643 19.2917 15.9167 19.2917C10.9692 19.2917 6.95837 15.2809 6.95837 10.3333C6.95837 5.38578 10.9692 1.375 15.9167 1.375C20.8643 1.375 24.875 5.38578 24.875 10.3333Z" stroke="#C31D2E" stroke-width="2" stroke-linecap="round" stroke-linejoin="round"/>
</svg>
