<svg width="129" height="129" viewBox="0 0 129 129" fill="none" xmlns="http://www.w3.org/2000/svg">
<g clip-path="url(#clip0_374_2728)">
<rect width="129" height="129" rx="64.5" fill="#476DDD"/>
<mask id="mask0_374_2728" style="mask-type:luminance" maskUnits="userSpaceOnUse" x="0" y="-27" width="150" height="158">
<path d="M0 -26.9855H149.382V130.739H0V-26.9855Z" fill="white"/>
</mask>
<g mask="url(#mask0_374_2728)">
<path d="M0.0594505 -26.6885C25.5689 44.9302 46.4949 60.8075 61.3532 61.0428C75.3889 61.2614 84.4459 47.5502 109.632 42.5735C122.896 39.9507 136.147 40.6344 149.382 44.6219V130.742C135.817 101.697 123.904 90.8751 114.974 86.7699C85.6572 73.2913 70.2515 123.846 37.1422 121.254C21.3536 120.018 8.49663 107.24 0.0570068 96.5439L0.0594505 -26.6885Z" fill="url(#paint0_linear_374_2728)" fill-opacity="0.56"/>
</g>
<mask id="mask1_374_2728" style="mask-type:luminance" maskUnits="userSpaceOnUse" x="0" y="39" width="150" height="83">
<path d="M0 39.7294H149.439V121.509H0V39.7294Z" fill="white"/>
</mask>
<g mask="url(#mask1_374_2728)">
<path d="M0.0594482 49.352C6.25904 63.2621 15.9229 81.1093 28.437 88.4063C49.6749 100.784 64.4705 74.342 84.7147 57.0216C99.4427 44.4201 121.059 33.3934 149.383 44.6135C122.552 46.023 102.02 61.9002 88.1123 76.3624C67.2897 98.0178 53.5653 124.373 31.7286 121.248C18.1573 119.306 7.18438 106.772 0.0594482 96.5383V49.352Z" fill="url(#paint1_linear_374_2728)" fill-opacity="0.58"/>
</g>
<mask id="mask2_374_2728" style="mask-type:luminance" maskUnits="userSpaceOnUse" x="-11" y="-2" width="151" height="83">
<path d="M-10.0957 -1.224H139.344V80.5554H-10.0957V-1.224Z" fill="white"/>
</mask>
<g mask="url(#mask2_374_2728)">
<path d="M-10.0363 8.39861C-3.83666 22.3087 5.82724 40.156 18.3413 47.4529C39.5792 59.8302 54.3748 33.3886 74.619 16.0682C89.347 3.46673 110.963 -7.55993 139.288 3.66009C112.456 5.06959 91.9243 20.9469 78.0166 35.409C57.194 57.0644 43.4696 83.4192 21.6329 80.2947C8.06157 78.3528 -2.91132 65.8185 -10.0363 55.5849V8.39861Z" fill="url(#paint2_linear_374_2728)" fill-opacity="0.58"/>
</g>
<mask id="mask3_374_2728" style="mask-type:luminance" maskUnits="userSpaceOnUse" x="-1" y="94" width="151" height="83">
<path d="M-0.374023 94.5181H149.065V176.298H-0.374023V94.5181Z" fill="white"/>
</mask>
<g mask="url(#mask3_374_2728)">
<path d="M-0.314575 104.141C5.88502 118.051 15.5489 135.898 28.063 143.195C49.3009 155.572 64.0965 129.131 84.3407 111.81C99.0687 99.2088 120.685 88.1821 149.009 99.4022C122.178 100.812 101.646 116.689 87.7382 131.151C66.9157 152.807 53.1912 179.161 31.3546 176.037C17.7833 174.095 6.81036 161.561 -0.314575 151.327V104.141Z" fill="url(#paint3_linear_374_2728)" fill-opacity="0.58"/>
</g>
<mask id="mask4_374_2728" style="mask-type:luminance" maskUnits="userSpaceOnUse" x="0" y="-55" width="150" height="127">
<path d="M0 -54.7888H149.174V71.2934H0V-54.7888Z" fill="white"/>
</mask>
<g mask="url(#mask4_374_2728)">
<path d="M0.0595703 -54.7888V27.3213C8.33058 40.3739 21.7284 58.3781 38.8651 66.737C60.3881 77.2313 72.7596 65.165 103.897 62.2591C114.3 61.2868 129.848 61.057 149.011 65.6386V35.5289C127.474 34.3296 109.807 36.5237 97.4782 38.8159C63.8361 45.0676 49.9528 55.7636 32.6533 32.7996C16.9763 11.9764 6.49294 -25.8645 0.0595703 -54.7888Z" fill="url(#paint4_linear_374_2728)" fill-opacity="0.27"/>
<path d="M-10.0361 -95.7422V-13.6321C-1.76512 -0.579439 11.6327 17.4247 28.7694 25.7837C50.2924 36.2779 62.6639 24.2116 93.8012 21.3058C104.204 20.3334 119.752 20.1036 138.915 24.6852V-5.42444C117.379 -6.62379 99.7116 -4.42966 87.3824 -2.13746C53.7404 4.11425 39.8571 14.8102 22.5576 -8.15379C6.88059 -28.9769 -3.60276 -66.8179 -10.0361 -95.7422Z" fill="url(#paint5_linear_374_2728)" fill-opacity="0.27"/>
<path d="M-0.314453 0V82.1101C7.95656 95.1627 21.3544 113.167 38.491 121.526C60.0141 132.02 72.3856 119.954 103.523 117.048C113.926 116.076 129.474 115.846 148.637 120.427V90.3177C127.1 89.1184 109.433 91.3125 97.1041 93.6047C63.4621 99.8564 49.5788 110.552 32.2792 87.5884C16.6023 66.7652 6.11892 28.9243 -0.314453 0Z" fill="url(#paint6_linear_374_2728)" fill-opacity="0.27"/>
</g>
</g>
<defs>
<linearGradient id="paint0_linear_374_2728" x1="74.7197" y1="-26.6885" x2="74.7197" y2="130.742" gradientUnits="userSpaceOnUse">
<stop stop-color="#213D8E"/>
<stop offset="1" stop-color="#6B90FF"/>
</linearGradient>
<linearGradient id="paint1_linear_374_2728" x1="74.7213" y1="39.9606" x2="74.7213" y2="121.502" gradientUnits="userSpaceOnUse">
<stop stop-color="#183897"/>
<stop offset="1" stop-color="#2D62FF"/>
</linearGradient>
<linearGradient id="paint2_linear_374_2728" x1="64.6256" y1="-0.992798" x2="64.6256" y2="80.5484" gradientUnits="userSpaceOnUse">
<stop stop-color="#183897"/>
<stop offset="1" stop-color="#2D62FF"/>
</linearGradient>
<linearGradient id="paint3_linear_374_2728" x1="74.3473" y1="94.7493" x2="74.3473" y2="176.29" gradientUnits="userSpaceOnUse">
<stop stop-color="#183897"/>
<stop offset="1" stop-color="#2D62FF"/>
</linearGradient>
<linearGradient id="paint4_linear_374_2728" x1="74.5353" y1="-54.7888" x2="74.5353" y2="70.949" gradientUnits="userSpaceOnUse">
<stop offset="0.528846" stop-color="#1941B7"/>
<stop offset="1"/>
</linearGradient>
<linearGradient id="paint5_linear_374_2728" x1="64.4396" y1="-95.7422" x2="64.4396" y2="29.9956" gradientUnits="userSpaceOnUse">
<stop offset="0.528846" stop-color="#1941B7"/>
<stop offset="1"/>
</linearGradient>
<linearGradient id="paint6_linear_374_2728" x1="74.1613" y1="0" x2="74.1613" y2="125.738" gradientUnits="userSpaceOnUse">
<stop offset="0.528846" stop-color="#1941B7"/>
<stop offset="1"/>
</linearGradient>
<clipPath id="clip0_374_2728">
<rect width="129" height="129" rx="64.5" fill="white"/>
</clipPath>
</defs>
</svg>
