<svg width="16" height="18" viewBox="0 0 16 18" fill="none" xmlns="http://www.w3.org/2000/svg">
<path d="M6.65244 16.2001C6.78897 16.4433 6.98535 16.6452 7.22182 16.7857C7.45829 16.9261 7.72653 17 7.99958 17C8.27263 17 8.54086 16.9261 8.77734 16.7857C9.01381 16.6452 9.21018 16.4433 9.34672 16.2001M1.20321 11.6608C1.10161 11.7754 1.03455 11.9178 1.01021 12.0709C0.985865 12.2239 1.00528 12.3809 1.06609 12.5228C1.12691 12.6647 1.2265 12.7853 1.35275 12.87C1.479 12.9548 1.62647 12.9999 1.77723 13.0001H14.2219C14.3727 13.0001 14.5202 12.9551 14.6465 12.8705C14.7728 12.786 14.8725 12.6655 14.9335 12.5237C14.9945 12.3819 15.0141 12.2249 14.99 12.0719C14.9658 11.9188 14.8989 11.7763 14.7975 11.6616C13.763 10.5648 12.6663 9.39924 12.6663 5.80002C12.6663 4.52698 12.1747 3.30607 11.2995 2.40589C10.4243 1.50572 9.23728 1 7.99958 1C6.76187 1 5.57486 1.50572 4.69968 2.40589C3.82449 3.30607 3.33281 4.52698 3.33281 5.80002C3.33281 9.39924 2.23535 10.5648 1.20321 11.6608Z" stroke="#212020" stroke-width="2" stroke-linecap="round" stroke-linejoin="round"/>
</svg>
