<svg width="34" height="34" viewBox="0 0 34 34" fill="none" xmlns="http://www.w3.org/2000/svg">
<circle cx="17.0003" cy="16.9796" r="16.7999" fill="#1A202C"/>
<path d="M22.2502 16.9797C22.2502 18.3721 21.6971 19.7074 20.7125 20.692C19.7279 21.6766 18.3926 22.2297 17.0002 22.2297C15.6078 22.2297 14.2725 21.6766 13.2879 20.692C12.3033 19.7074 11.7502 18.3721 11.7502 16.9797C11.7502 16.6804 11.7817 16.3882 11.8359 16.1047H10.0002V23.0994C10.0002 23.5859 10.3939 23.9797 10.8804 23.9797H23.1217C23.3549 23.9792 23.5783 23.8863 23.743 23.7213C23.9077 23.5562 24.0002 23.3326 24.0002 23.0994V16.1047H22.1644C22.2187 16.3882 22.2502 16.6804 22.2502 16.9797ZM17.0002 20.4797C17.4599 20.4796 17.9152 20.3889 18.3399 20.2129C18.7646 20.0368 19.1504 19.7789 19.4754 19.4537C19.8004 19.1285 20.0582 18.7425 20.234 18.3177C20.4099 17.8929 20.5003 17.4377 20.5002 16.9779C20.5001 16.5182 20.4094 16.063 20.2334 15.6383C20.0573 15.2136 19.7994 14.8277 19.4742 14.5027C19.149 14.1777 18.763 13.9199 18.3382 13.7441C17.9135 13.5683 17.4582 13.4778 16.9984 13.4779C16.07 13.4782 15.1796 13.8472 14.5232 14.5039C13.8668 15.1606 13.4982 16.0512 13.4984 16.9797C13.4987 17.9082 13.8677 18.7985 14.5244 19.4549C15.1812 20.1113 16.0717 20.4799 17.0002 20.4797ZM21.2002 13.3047H23.2984C23.4378 13.3047 23.5716 13.2494 23.6703 13.151C23.769 13.0526 23.8247 12.9191 23.8252 12.7797V10.6814C23.8252 10.5417 23.7697 10.4078 23.6709 10.309C23.5721 10.2102 23.4382 10.1547 23.2984 10.1547H21.2002C21.0605 10.1547 20.9265 10.2102 20.8277 10.309C20.7289 10.4078 20.6734 10.5417 20.6734 10.6814V12.7797C20.6752 13.0684 20.9114 13.3047 21.2002 13.3047ZM17.0002 0.179688C12.5446 0.179688 8.27141 1.94968 5.1208 5.10029C1.97019 8.25091 0.200195 12.5241 0.200195 16.9797C0.200195 21.4353 1.97019 25.7085 5.1208 28.8591C8.27141 32.0097 12.5446 33.7797 17.0002 33.7797C19.2064 33.7797 21.391 33.3451 23.4293 32.5009C25.4676 31.6566 27.3196 30.4191 28.8796 28.8591C30.4396 27.2991 31.6771 25.447 32.5214 23.4088C33.3657 21.3705 33.8002 19.1859 33.8002 16.9797C33.8002 14.7735 33.3657 12.5889 32.5214 10.5506C31.6771 8.51234 30.4396 6.66032 28.8796 5.10029C27.3196 3.54027 25.4676 2.30279 23.4293 1.45851C21.391 0.614232 19.2064 0.179688 17.0002 0.179688ZM25.7502 23.7854C25.7502 24.8547 24.8752 25.7297 23.8059 25.7297H10.1944C9.1252 25.7297 8.2502 24.8547 8.2502 23.7854V10.1739C8.2502 9.10469 9.1252 8.22969 10.1944 8.22969H23.8059C24.8752 8.22969 25.7502 9.10469 25.7502 10.1739V23.7854Z" fill="white"/>
</svg>
