<svg width="36" height="34" viewBox="0 0 36 34" fill="none" xmlns="http://www.w3.org/2000/svg">
<path d="M18 26.3334V33.0001M21.8417 10.5501L23.38 9.91342M23.38 6.08676L21.8417 5.44842M26.0867 3.38009L25.4484 1.84009M26.0867 12.6201L25.4484 14.1584M29.9134 3.38009L30.5517 1.84009M30.55 14.1601L29.9134 12.6201M32.62 6.08676L34.16 5.44842M32.62 9.91342L34.16 10.5518M34.6667 19.6668V23.0001C34.6667 23.8841 34.3155 24.732 33.6904 25.3571C33.0653 25.9822 32.2174 26.3334 31.3334 26.3334H4.66671C3.78265 26.3334 2.93481 25.9822 2.30968 25.3571C1.68456 24.732 1.33337 23.8841 1.33337 23.0001V6.33342C1.33337 5.44937 1.68456 4.60152 2.30968 3.9764C2.93481 3.35128 3.78265 3.00009 4.66671 3.00009H16.3334M11.3334 33.0001H24.6667M33 8.00009C33 10.7615 30.7615 13.0001 28 13.0001C25.2386 13.0001 23 10.7615 23 8.00009C23 5.23866 25.2386 3.00009 28 3.00009C30.7615 3.00009 33 5.23866 33 8.00009Z" stroke="#C31D2E" stroke-width="2" stroke-linecap="round" stroke-linejoin="round"/>
</svg>
