<svg width="25" height="20" viewBox="0 0 25 20" fill="none" xmlns="http://www.w3.org/2000/svg">
<path d="M20.3757 14.6302C22.9701 12.3148 24.4039 9.69143 24.4039 9.69143C24.4039 9.69143 19.8282 1.30261 12.202 1.30261C10.737 1.30644 9.28845 1.61172 7.94653 2.19945L9.12097 3.37541C10.1089 3.01736 11.1511 2.83213 12.202 2.82785C15.4355 2.82785 18.1184 4.60933 20.0844 6.57537C21.0316 7.52571 21.8799 8.56975 22.6163 9.69143C22.5288 9.82362 22.4297 9.97004 22.3189 10.1307C21.8079 10.8628 21.0529 11.839 20.0844 12.8075C19.8332 13.0597 19.5704 13.3068 19.2958 13.5488L20.3757 14.6302Z" fill="#514F4F"/>
<path d="M17.2306 11.485C17.571 10.533 17.634 9.50397 17.4124 8.51755C17.1908 7.53114 16.6936 6.62794 15.9787 5.91305C15.2638 5.19816 14.3606 4.70098 13.3742 4.47934C12.3878 4.25771 11.3587 4.32074 10.4067 4.66111L11.662 5.91638C12.2481 5.83248 12.8458 5.88625 13.4076 6.07342C13.9693 6.2606 14.4798 6.57603 14.8985 6.99474C15.3172 7.41345 15.6327 7.92391 15.8198 8.48569C16.007 9.04747 16.0608 9.64512 15.9769 10.2313L17.2306 11.485ZM12.7418 13.4663L13.9956 14.7201C13.0436 15.0604 12.0145 15.1235 11.0281 14.9018C10.0417 14.6802 9.1385 14.183 8.42361 13.4681C7.70872 12.7532 7.21153 11.85 6.9899 10.8636C6.76827 9.8772 6.8313 8.84813 7.17166 7.89614L8.42694 9.15141C8.34304 9.73758 8.39681 10.3352 8.58398 10.897C8.77116 11.4588 9.08659 11.9692 9.5053 12.388C9.924 12.8067 10.4345 13.1221 10.9962 13.3093C11.558 13.4964 12.1557 13.5502 12.7418 13.4663Z" fill="#514F4F"/>
<path d="M5.10955 5.83252C4.83501 6.07656 4.57165 6.32415 4.31948 6.57531C3.37225 7.52565 2.52394 8.56969 1.78758 9.69137L2.085 10.1306C2.59596 10.8628 3.35095 11.8389 4.31948 12.8074C6.28551 14.7735 8.96994 16.555 12.2019 16.555C13.294 16.555 14.322 16.3521 15.2829 16.0059L16.4573 17.1834C15.1154 17.7711 13.6669 18.0764 12.2019 18.0802C4.57572 18.0802 0 9.69137 0 9.69137C0 9.69137 1.4322 7.06644 4.02816 4.75265L5.10803 5.83404L5.10955 5.83252ZM20.8134 19.3827L2.51054 1.07987L3.59041 0L21.8933 18.3029L20.8134 19.3827Z" fill="#514F4F"/>
</svg>
