<svg width="25" height="17" viewBox="0 0 25 17" fill="none" xmlns="http://www.w3.org/2000/svg">
<path d="M24.2727 8.34374C24.2727 8.34374 19.7216 0 12.1364 0C4.55113 0 0 8.34374 0 8.34374C0 8.34374 4.55113 16.6875 12.1364 16.6875C19.7216 16.6875 24.2727 8.34374 24.2727 8.34374ZM1.77949 8.34374C2.51189 7.22809 3.35565 6.18966 4.29779 5.24442C6.25022 3.28895 8.92022 1.51704 12.1364 1.51704C15.3525 1.51704 18.021 3.28895 19.9764 5.24442C20.9186 6.18966 21.7623 7.22809 22.4947 8.34374C22.4078 8.47522 22.3091 8.62086 22.1989 8.78065C21.6907 9.50883 20.9398 10.4797 19.9764 11.4431C18.021 13.3985 15.351 15.1704 12.1364 15.1704C8.92174 15.1704 6.25174 13.3985 4.29627 11.4431C3.35413 10.4978 2.51189 9.4594 1.77949 8.34374Z" fill="#514F4F"/>
<path d="M12.1363 4.5511C11.1305 4.5511 10.1658 4.95068 9.45453 5.66193C8.74328 6.37318 8.3437 7.33785 8.3437 8.34371C8.3437 9.34957 8.74328 10.3142 9.45453 11.0255C10.1658 11.7367 11.1305 12.1363 12.1363 12.1363C13.1422 12.1363 14.1068 11.7367 14.8181 11.0255C15.5293 10.3142 15.9289 9.34957 15.9289 8.34371C15.9289 7.33785 15.5293 6.37318 14.8181 5.66193C14.1068 4.95068 13.1422 4.5511 12.1363 4.5511ZM6.82666 8.34371C6.82666 6.9355 7.38607 5.58497 8.38182 4.58922C9.37758 3.59347 10.7281 3.03406 12.1363 3.03406C13.5445 3.03406 14.8951 3.59347 15.8908 4.58922C16.8866 5.58497 17.446 6.9355 17.446 8.34371C17.446 9.75192 16.8866 11.1025 15.8908 12.0982C14.8951 13.094 13.5445 13.6534 12.1363 13.6534C10.7281 13.6534 9.37758 13.094 8.38182 12.0982C7.38607 11.1025 6.82666 9.75192 6.82666 8.34371Z" fill="#514F4F"/>
</svg>
