<svg width="34" height="36" viewBox="0 0 34 36" fill="none" xmlns="http://www.w3.org/2000/svg">
<path d="M22.6667 24.6668L26 28.0002L32.6667 21.3335M31 14.6668V11.3335C30.9994 10.749 30.8451 10.1748 30.5526 9.66877C30.26 9.16269 29.8396 8.74243 29.3333 8.45016L17.6667 1.7835C17.1599 1.49093 16.5851 1.33691 16 1.33691C15.4149 1.33691 14.8401 1.49093 14.3333 1.7835L2.66667 8.45016C2.16044 8.74243 1.73997 9.16269 1.44744 9.66877C1.1549 10.1748 1.0006 10.749 1 11.3335V24.6668C1.0006 25.2514 1.1549 25.8255 1.44744 26.3316C1.73997 26.8376 2.16044 27.2579 2.66667 27.5502L14.3333 34.2168C14.8401 34.5094 15.4149 34.6634 16 34.6634C16.5851 34.6634 17.1599 34.5094 17.6667 34.2168L21 32.3168M8.5 5.11683L23.5 13.7002M1.48333 9.66683L16 18.0002M16 18.0002L30.5167 9.66683M16 18.0002V34.6668" stroke="#C31D2E" stroke-width="2" stroke-linecap="round" stroke-linejoin="round"/>
</svg>
