<svg width="32" height="32" viewBox="0 0 32 32" fill="none" xmlns="http://www.w3.org/2000/svg">
<path d="M14.4609 17.5372C14.1902 17.2669 13.8675 17.0543 13.5123 16.9121L2.27818 12.4071C2.14404 12.3533 2.02958 12.2597 1.95016 12.139C1.87073 12.0182 1.83015 11.8761 1.83385 11.7316C1.83755 11.5871 1.88536 11.4472 1.97086 11.3307C2.05636 11.2142 2.17546 11.1266 2.31218 11.0797L29.2288 1.87138C29.3544 1.82604 29.4902 1.81739 29.6205 1.84643C29.7507 1.87548 29.87 1.94102 29.9644 2.0354C30.0588 2.12977 30.1243 2.24907 30.1534 2.37933C30.1824 2.50959 30.1738 2.64544 30.1284 2.77096L20.9201 29.6876C20.8732 29.8243 20.7856 29.9434 20.6691 30.0289C20.5526 30.1144 20.4127 30.1623 20.2682 30.166C20.1237 30.1697 19.9816 30.1291 19.8608 30.0496C19.7401 29.9702 19.6465 29.8558 19.5927 29.7216L15.0877 18.4846C14.9449 18.1297 14.7316 17.8075 14.4609 17.5372ZM14.4609 17.5372L29.9598 2.04138" stroke="#C31D2E" stroke-width="2" stroke-linecap="round" stroke-linejoin="round"/>
</svg>
